# xmcd CD database file
#
# Track frame offsets:
#	183
#	13628
#	44828
#	68073
#	99960
#	119288
#	146425
#	164725
#	176708
#	211595
#	217648
#
# Disc length: 3279 seconds
#
# Revision: 1
# Processed by: cddbd v1.4PL0 Copyright (c) Steve Scherf et al.
# Submitted via: CDex 1.40Release
#
DISCID=950ccd0b
DTITLE=The Fearsome Brave - Sacred Spirit - Chants And Dances Of The Native Americans
DYEAR=1994
DGENRE=Native American
TTITLE0=Intro and Prelude (How The West Was Lost)
TTITLE1=Tor-Cheney-Nahana (Winter Ceremony)
TTITLE2=Ly-O-Lay Ale Loya (The Counterclockwise Circle Dance)
TTITLE3=Ya-Na-Hana (Celebrate Wild Rice)
TTITLE4=Dawa (The Cradlesong)
TTITLE5=Gitchi-Manido (Advice For The Young)
TTITLE6=Yeha-Noha (Wishes Of Happiness and Prosterity)
TTITLE7=Ta-Was-Ne (Elevation)
TTITLE8=Heya-Hee (Intertribal Song To Stop The Rain)
TTITLE9=Shamanic Chant No.5 (Heal The Soul)
TTITLE10=Yo-Hey-O-Hee (Brandishing The Tomahawk)
EXTD=YEAR: 1994 ID3G: 64
EXTT0=
EXTT1=
EXTT2=
EXTT3=
EXTT4=
EXTT5=
EXTT6=
EXTT7=
EXTT8=
EXTT9=
EXTT10=
PLAYORDER=
